<svg width="20" height="20" fill="none" xmlns="http://www.w3.org/2000/svg"><path d="M9.81 4.8a4.94 4.94 0 100 9.9 4.94 4.94 0 000-9.9zm0 8.17A3.22 3.22 0 016.6 9.75a3.18 3.18 0 013.22-3.18A3.17 3.17 0 0113 9.75c0 1.8-1.42 3.22-3.18 3.22zm6.28-8.33c0-.65-.52-1.16-1.16-1.16-.65 0-1.16.51-1.16 1.16 0 .64.51 1.16 1.16 1.16.64 0 1.16-.52 1.16-1.16zm3.26 1.16c-.08-1.55-.43-2.92-1.55-4.04C16.7.64 15.31.3 13.77.2 12.17.13 7.4.13 5.82.21 4.27.3 2.94.64 1.78 1.76.66 2.87.32 4.25.23 5.8c-.09 1.59-.09 6.36 0 7.95.09 1.54.43 2.88 1.55 4.04 1.16 1.11 2.49 1.46 4.04 1.54 1.59.09 6.36.09 7.95 0 1.54-.08 2.92-.43 4.03-1.54 1.12-1.16 1.47-2.5 1.55-4.04.09-1.6.09-6.36 0-7.95zm-2.06 9.62c-.3.86-.99 1.5-1.8 1.85-1.3.52-4.3.39-5.68.39-1.42 0-4.42.13-5.67-.39a3.26 3.26 0 01-1.85-1.85c-.51-1.24-.38-4.25-.38-5.67 0-1.38-.13-4.38.38-5.67.35-.82 1-1.46 1.85-1.8 1.25-.52 4.25-.4 5.67-.4 1.38 0 4.39-.12 5.67.4.82.3 1.47.98 1.8 1.8.52 1.29.4 4.3.4 5.67 0 1.42.12 4.43-.4 5.67z" fill="#9499A4"/></svg>