<svg aria-hidden="true" style="position: absolute; width: 0; height: 0; overflow: hidden;" version="1.1" xmlns="http://www.w3.org/2000/svg" xmlns:xlink="http://www.w3.org/1999/xlink">
<defs>
<symbol id="icon-facebook" viewBox="0 0 17 32">
<path  d="M16.061 18.015l0.873-5.762h-5.559v-3.754c0-1.615 0.757-3.114 3.245-3.114h2.576v-4.948s-2.328-0.437-4.511-0.437c-4.555 0-7.567 2.808-7.567 7.814v4.438h-5.122v5.762h5.122v13.999h6.257v-14.013h4.686z"></path>
</symbol>
<symbol id="icon-instagram" viewBox="0 0 32 32">
<path  d="M15.7 7.682c-4.375 0-7.922 3.547-7.922 7.922s3.547 7.922 7.922 7.922v0c4.375 0 7.922-3.547 7.922-7.922s-3.547-7.922-7.922-7.922v0zM15.7 20.757c-2.839-0.009-5.137-2.313-5.137-5.153 0 0 0 0 0-0v0c0-0 0-0 0-0 0-2.811 2.279-5.089 5.089-5.089 0.023 0 0.045 0 0.067 0l-0.003-0c0.005-0 0.010-0 0.016-0 2.802 0 5.073 2.271 5.073 5.073 0 0.006 0 0.011-0 0.017v-0.001c0 2.881-2.273 5.153-5.089 5.153zM25.75 7.426c0-1.040-0.832-1.856-1.856-1.856-1.040 0-1.856 0.816-1.856 1.856 0 1.024 0.816 1.856 1.856 1.856 1.024 0 1.856-0.832 1.856-1.856zM30.967 9.282c-0.128-2.481-0.688-4.673-2.481-6.466-1.76-1.792-3.985-2.337-6.45-2.497-2.561-0.112-10.194-0.112-12.723 0.016-2.481 0.144-4.609 0.688-6.466 2.481-1.792 1.776-2.337 3.985-2.481 6.466-0.144 2.545-0.144 10.178 0 12.723 0.144 2.465 0.688 4.609 2.481 6.466 1.856 1.776 3.985 2.337 6.466 2.465 2.545 0.144 10.178 0.144 12.723 0 2.465-0.128 4.673-0.688 6.45-2.465 1.792-1.856 2.353-4.001 2.481-6.466 0.144-2.561 0.144-10.178 0-12.723zM27.671 24.678c-0.48 1.376-1.584 2.401-2.881 2.961-2.081 0.832-6.882 0.624-9.090 0.624-2.273 0-7.074 0.208-9.074-0.624-1.361-0.542-2.419-1.6-2.948-2.925l-0.012-0.035c-0.816-1.984-0.608-6.802-0.608-9.074 0-2.209-0.208-7.010 0.608-9.074 0.56-1.312 1.6-2.337 2.961-2.881 2-0.832 6.802-0.64 9.074-0.64 2.209 0 7.026-0.192 9.074 0.64 1.312 0.48 2.353 1.568 2.881 2.881 0.832 2.064 0.64 6.882 0.64 9.074 0 2.273 0.192 7.090-0.64 9.074z"></path>
</symbol>
</defs>
</svg>
