<svg width="75" height="83" fill="none" xmlns="http://www.w3.org/2000/svg"><g filter="url(#a)"><path d="M0 27.741c0-4.882 2.606-9.393 6.835-11.831L30.916 2.025a13.657 13.657 0 0 1 13.88.14L67.49 15.867a13.657 13.657 0 0 1 6.598 11.691v27.756c0 4.886-2.61 9.4-6.845 11.836L44.555 80.207a13.657 13.657 0 0 1-13.389.132L7.08 67.102A13.657 13.657 0 0 1 0 55.133V27.741Z" fill="url(#b)"/></g><defs><linearGradient id="b" x1="37.044" y1="-2" x2="37.044" y2="84.038" gradientUnits="userSpaceOnUse"><stop stop-color="#17C2C8"/><stop offset="1" stop-color="#00AEB3" stop-opacity=".64"/></linearGradient><filter id="a" x="0" y=".2" width="74.088" height="83.871" filterUnits="userSpaceOnUse" color-interpolation-filters="sRGB"><feFlood flood-opacity="0" result="BackgroundImageFix"/><feBlend in="SourceGraphic" in2="BackgroundImageFix" result="shape"/><feColorMatrix in="SourceAlpha" values="0 0 0 0 0 0 0 0 0 0 0 0 0 0 0 0 0 0 127 0" result="hardAlpha"/><feOffset dy="2.044"/><feGaussianBlur stdDeviation="1.022"/><feComposite in2="hardAlpha" operator="arithmetic" k2="-1" k3="1"/><feColorMatrix values="0 0 0 0 0 0 0 0 0 0 0 0 0 0 0 0 0 0 0.25 0"/><feBlend in2="shape" result="effect1_innerShadow"/></filter></defs></svg>